<svg xmlns="http://www.w3.org/2000/svg" width="99" height="103.4" viewBox="0 0 99 103.4">
  <metadata><?xpacket begin="﻿" id="W5M0MpCehiHzreSzNTczkc9d"?>
<x:xmpmeta xmlns:x="adobe:ns:meta/" x:xmptk="Adobe XMP Core 5.6-c138 79.159824, 2016/09/14-01:09:01        ">
   <rdf:RDF xmlns:rdf="http://www.w3.org/1999/02/22-rdf-syntax-ns#">
      <rdf:Description rdf:about=""/>
   </rdf:RDF>
</x:xmpmeta>
                                                                                                    
                                                                                                    
                                                                                                    
                                                                                                    
                                                                                                    
                                                                                                    
                                                                                                    
                                                                                                    
                                                                                                    
                                                                                                    
                                                                                                    
                                                                                                    
                                                                                                    
                                                                                                    
                                                                                                    
                                                                                                    
                                                                                                    
                                                                                                    
                                                                                                    
                                                                                                    
                           
<?xpacket end="w"?></metadata>
<defs>
    <style>
      .cls-1 {
        fill-rule: evenodd;
      }
    </style>
  </defs>
  <path id="ny" class="cls-1" d="M3786.07,17218.1c0-.6.33-0.5,0.59-0.4,7.68,5.5,20.82,17.6,20.82,17.6v-16c0-.6,0-0.7.44-0.7h8.15c0.53,0,.53.1,0.53,0.7,0.23,10.4.17,24.7,0,35.8,0,0.6-.05,1-0.64.5-8.1-6-20.77-17.6-20.77-17.6v16.4c0,0.4,0,.4-0.48.4h-8.1a0.515,0.515,0,0,1-.54-0.5c-0.26-13.6-.21-22.1,0-36.2m62.91,90.2v10.9c0,0.7,0,.7-0.58.7h-8.91c-0.33,0-.38,0-0.38-0.7v-10.6s-7.72-13.8-12.92-24.2c-0.39-.7-0.34-0.7.3-0.7h9.08a1.241,1.241,0,0,1,1.4.8c2.19,4.5,7.08,15.5,7.08,15.5s4.98-10.9,6.72-15.4c0.31-.8.47-0.9,1.12-0.9h7.87c1.14,0,1.31.1,0.77,1.3-4.73,10.4-11.55,23.3-11.55,23.3m17.9-81.1-94.26,93.8-4.76-4.7,94.27-93.8Z" transform="translate(-3767.88 -17217.6)"/>
</svg>
