<svg xmlns="http://www.w3.org/2000/svg" width="99" height="102" viewBox="0 0 99 102">
  <metadata><?xpacket begin="﻿" id="W5M0MpCehiHzreSzNTczkc9d"?>
<x:xmpmeta xmlns:x="adobe:ns:meta/" x:xmptk="Adobe XMP Core 5.6-c138 79.159824, 2016/09/14-01:09:01        ">
   <rdf:RDF xmlns:rdf="http://www.w3.org/1999/02/22-rdf-syntax-ns#">
      <rdf:Description rdf:about=""/>
   </rdf:RDF>
</x:xmpmeta>
                                                                                                    
                                                                                                    
                                                                                                    
                                                                                                    
                                                                                                    
                                                                                                    
                                                                                                    
                                                                                                    
                                                                                                    
                                                                                                    
                                                                                                    
                                                                                                    
                                                                                                    
                                                                                                    
                                                                                                    
                                                                                                    
                                                                                                    
                                                                                                    
                                                                                                    
                                                                                                    
                           
<?xpacket end="w"?></metadata>
<defs>
    <style>
      .cls-1 {
        fill-rule: evenodd;
      }
    </style>
  </defs>
  <path id="sf" class="cls-1" d="M2600.88,17226.7l-94.27,93.5-4.75-4.7,94.27-93.5Zm-74.5,20.1,6.6-2.7c0.48-.1.48-0.1,0.59,0.3a6.906,6.906,0,0,0,6.5,4.3c3.7,0,5.41-1.1,5.41-3.6,0-2.1-1.56-3.5-6.48-4.1-0.38-.1-0.93-0.1-1.28-0.2-6.51-.6-11.02-4.2-11.02-10.8,0-6.9,4.78-11.8,14.27-11.8,7.15,0,11.54,3.4,12.94,7.8,0.16,0.6-.05.8-0.37,0.9l-6.29,2.5c-0.37.2-.54,0.1-0.64-0.2a6.719,6.719,0,0,0-6.01-4.2c-3.76,0-4.93,1.4-4.93,3.4,0,2.4,1.98,3.4,6.81,4.2q0.735,0.15,1.77.3c6.87,1,10.84,4.6,10.84,11.2,0,8.2-6.81,11.9-15.24,11.9-7.31,0-11.87-3-13.69-8.2-0.21-.6-0.16-0.8.22-1m31.61,73.2c-0.33,0-.43.1-0.43-0.7v-34.7c0-.7.05-0.7,0.43-0.7h23.56c0.43,0,.38.1,0.43,0.5a48.058,48.058,0,0,1,0,7.3c-0.05.5,0,.5-0.43,0.5l-14.33-.1v7.2l12.72-.1a0.573,0.573,0,0,1,.7.6,63.988,63.988,0,0,1,0,7.2,0.593,0.593,0,0,1-.75.6l-12.67-.1v11.8c0,0.5-.05.7-0.48,0.7h-8.75Z" transform="translate(-2501.88 -17218.2)"/>
</svg>
